<svg width="28" height="28" viewBox="0 0 28 28" fill="none" xmlns="http://www.w3.org/2000/svg">
<path d="M14 0C6.28025 0 0 6.28025 0 14C0 21.7198 6.28025 28 14 28C21.7198 28 28 21.7198 28 14C28 6.28024 21.7198 0 14 0ZM14 25.2903C7.77444 25.2903 2.70968 20.2256 2.70968 14C2.70968 7.77444 7.77444 2.70968 14 2.70968C20.2256 2.70968 25.2903 7.77444 25.2903 14C25.2903 20.2256 20.2256 25.2903 14 25.2903Z" fill="#2F2E41"/>
<path d="M13.9999 10.9348C13.2514 10.9348 12.645 11.5417 12.645 12.2896V20.9267C12.645 21.6747 13.2514 22.2816 13.9999 22.2816C14.7483 22.2816 15.3547 21.6747 15.3547 20.9267V12.2896C15.3547 11.5417 14.7483 10.9348 13.9999 10.9348ZM13.9999 5.71655C13.2514 5.71655 12.645 6.32341 12.645 7.07139V8.29745C12.645 9.04544 13.2514 9.65229 13.9999 9.65229C14.7483 9.65229 15.3547 9.04543 15.3547 8.29745V7.07139C15.3547 6.3234 14.7483 5.71655 13.9999 5.71655Z" fill="#2F2E41"/>
</svg>
