<svg width="26" height="25" viewBox="0 0 26 25" fill="none" xmlns="http://www.w3.org/2000/svg">
<path d="M25.4167 24.1667H23.75C23.9583 24.1667 24.1667 23.9583 24.1667 23.75C24.1667 23.5417 23.9583 23.3333 23.75 23.3333H18.75C18.5417 23.3333 18.3333 23.5417 18.3333 23.75C18.3333 23.9583 18.5417 24.1667 18.75 24.1667H17.5833C17.375 23.5833 17.625 23.125 17.8333 22.9167C17.2083 22.125 17.625 21.4583 17.8333 21.25C17.2083 20.5 17.625 19.7917 17.8333 19.5833C17.2083 18.75 17.625 18.125 17.8333 17.9167C17.2083 17.1667 17.625 16.4583 17.8333 16.25C16.9583 15.1667 18 14.125 18.75 14.1667H20V12.9167C20 8.79167 17.1667 5.25 13.1667 4.375C12.875 4.79167 12.5833 4.875 12.5 4.91667V6.25C12.5 6.45833 12.2917 6.66667 12.0833 6.66667C11.875 6.66667 11.6667 6.45833 11.6667 6.25V5H10.8333V7.91667C10.8333 8.125 10.625 8.33333 10.4167 8.33333C10.2083 8.33333 10 8.125 10 7.91667V4.91667C10 4.91667 9.58333 4.79167 9.33333 4.375C5.33333 5.25 2.5 8.79167 2.5 12.9167V17.8333C2.5 19.9167 2.25 22.0417 1.75 24.1667H0.416667C0.208333 24.1667 0 24.375 0 24.5833C0 24.7917 0.208333 25 0.416667 25H25.4167C25.625 25 25.8333 24.7917 25.8333 24.5833C25.8333 24.375 25.625 24.1667 25.4167 24.1667ZM4.20833 9.25C5 7.75 6.25 6.5 7.70833 5.79167C7.91667 5.66667 8.16667 5.79167 8.25 5.95833C8.375 6.16667 8.25 6.41667 8.08333 6.5C6.75 7.16667 5.625 8.25 4.91667 9.625C4.83333 9.75 4.58333 9.91667 4.375 9.79167C4.16667 9.75 4.125 9.45833 4.20833 9.25ZM3.5 11.2083C3.54167 11 3.75 10.8333 3.95833 10.875C4.20833 10.9167 4.33333 11.125 4.33333 11.3333C4.33333 11.5 4.25 12.0417 4.20833 12.1667C4.08333 12.5833 3.75 12.5 3.75 12.5C3.5 12.4583 3.375 12.25 3.375 12.0417C3.41667 11.875 3.5 11.3333 3.5 11.2083ZM4.58333 23.3333H3.75C3.54167 23.3333 3.33333 23.125 3.33333 22.9167C3.33333 22.7083 3.54167 22.5 3.75 22.5H4.58333C4.79167 22.5 5 22.7083 5 22.9167C5 23.125 4.79167 23.3333 4.58333 23.3333ZM9.58333 23.3333H6.25C6.04167 23.3333 5.83333 23.125 5.83333 22.9167C5.83333 22.7083 6.04167 22.5 6.25 22.5H9.58333C9.79167 22.5 10 22.7083 10 22.9167C10 23.125 9.79167 23.3333 9.58333 23.3333ZM11.25 15C12.4167 15 13.3333 15.9167 13.3333 17.0833C13.3333 18.0833 12.625 18.9167 11.6667 19.125V20.4167C11.6667 20.625 11.4583 20.8333 11.25 20.8333C11.0417 20.8333 10.8333 20.625 10.8333 20.4167V19.125C9.875 18.9167 9.16667 18.0833 9.16667 17.0833C9.16667 16.875 9.375 16.6667 9.58333 16.6667C9.79167 16.6667 10 16.875 10 17.0833C10 17.7917 10.5417 18.3333 11.25 18.3333C11.9583 18.3333 12.5 17.7917 12.5 17.0833C12.5 16.375 11.9583 15.8333 11.25 15.8333C10.0833 15.8333 9.16667 14.9167 9.16667 13.75C9.16667 12.75 9.875 11.9167 10.8333 11.7083V10.4167C10.8333 10.2083 11.0417 10 11.25 10C11.4583 10 11.6667 10.2083 11.6667 10.4167V11.7083C12.625 11.9167 13.3333 12.75 13.3333 13.75C13.3333 13.9583 13.125 14.1667 12.9167 14.1667C12.7083 14.1667 12.5 13.9583 12.5 13.75C12.5 13.0417 11.9583 12.5 11.25 12.5C10.5417 12.5 10 13.0417 10 13.75C10 14.4583 10.5417 15 11.25 15Z" fill="white"/>
<path d="M23.75 21.6667H18.75C18.5417 21.6667 18.3333 21.875 18.3333 22.0833C18.3333 22.2917 18.5417 22.5 18.75 22.5H23.75C23.9583 22.5 24.1667 22.2917 24.1667 22.0833C24.1667 21.875 23.9583 21.6667 23.75 21.6667ZM23.75 20H18.75C18.5417 20 18.3333 20.2083 18.3333 20.4167C18.3333 20.625 18.5417 20.8333 18.75 20.8333H23.75C23.9583 20.8333 24.1667 20.625 24.1667 20.4167C24.1667 20.2083 23.9583 20 23.75 20ZM23.75 18.3333H18.75C18.5417 18.3333 18.3333 18.5417 18.3333 18.75C18.3333 18.9583 18.5417 19.1667 18.75 19.1667H23.75C23.9583 19.1667 24.1667 18.9583 24.1667 18.75C24.1667 18.5417 23.9583 18.3333 23.75 18.3333ZM23.75 16.6667H18.75C18.5417 16.6667 18.3333 16.875 18.3333 17.0833C18.3333 17.2917 18.5417 17.5 18.75 17.5H23.75C23.9583 17.5 24.1667 17.2917 24.1667 17.0833C24.1667 16.875 23.9583 16.6667 23.75 16.6667ZM18.3333 15.4167C18.3333 15.625 18.5417 15.8333 18.75 15.8333H23.75C23.9583 15.8333 24.1667 15.625 24.1667 15.4167C24.1667 15.2083 23.9583 15 23.75 15H18.75C18.5417 15 18.3333 15.2083 18.3333 15.4167ZM10.625 2.5H11.875L13.4167 0.416667C13.5417 0.291667 13.5 0 13.2083 0H9.29166C9.04166 0 8.95833 0.25 9.08333 0.416667L10.625 2.5ZM10.4167 3.33333C10.2083 3.33333 10 3.54167 10 3.75C10 3.75 10 4.16667 10.4167 4.16667H12.0833C12.5 4.16667 12.5 3.75 12.5 3.75C12.5 3.625 12.5 3.33333 12.0833 3.33333H10.4167Z" fill="white"/>
</svg>
