<svg width="26" height="28" viewBox="0 0 26 28" fill="none" xmlns="http://www.w3.org/2000/svg">
<path d="M22.0555 13.0509C21.7904 13.0509 21.5361 12.9456 21.3487 12.7582C21.1612 12.5707 21.0559 12.3164 21.0559 12.0513V9.22842C21.0559 5.22997 17.3613 2.03121 12.8191 2.03121C8.27686 2.03121 4.58229 5.26995 4.58229 9.22842V12.0513C4.58229 12.3164 4.47698 12.5707 4.28951 12.7582C4.10205 12.9456 3.84779 13.0509 3.58268 13.0509C3.31757 13.0509 3.06331 12.9456 2.87585 12.7582C2.68838 12.5707 2.58307 12.3164 2.58307 12.0513V9.22842C2.58307 4.14239 7.18128 0 12.8191 0C18.4569 0 23.0551 4.14239 23.0551 9.22842V12.0513C23.0562 12.1829 23.0311 12.3134 22.9812 12.4351C22.9313 12.5569 22.8578 12.6675 22.7647 12.7605C22.6717 12.8536 22.5611 12.9272 22.4393 12.977C22.3175 13.0269 22.1871 13.052 22.0555 13.0509Z" fill="#2F2E41"/>
<path d="M19.3525 22.4556C19.0874 22.4556 18.8331 22.3503 18.6457 22.1629C18.4582 21.9754 18.3529 21.7211 18.3529 21.456V11.9637C18.3612 11.7042 18.4702 11.4581 18.6567 11.2775C18.8433 11.0969 19.0928 10.996 19.3525 10.9961C22.7992 10.9961 25.6061 13.5791 25.6061 16.7459C25.6061 19.9126 22.7992 22.4556 19.3525 22.4556ZM20.3521 13.0673V20.3525C21.2273 20.2076 22.0265 19.7676 22.6172 19.1057C23.2078 18.4439 23.5542 17.5998 23.5988 16.7139C23.5559 15.8265 23.2103 14.9806 22.6196 14.3171C22.0288 13.6536 21.2286 13.2125 20.3521 13.0673ZM6.25357 22.4556C2.80691 22.4556 0 19.8806 0 16.7139C0 13.5471 2.80691 10.9961 6.25357 10.9961C6.51869 10.9961 6.77294 11.1014 6.96041 11.2889C7.14787 11.4763 7.25319 11.7306 7.25319 11.9957V21.456C7.25319 21.7211 7.14787 21.9754 6.96041 22.1629C6.77294 22.3503 6.51869 22.4556 6.25357 22.4556ZM5.25396 13.0673C4.37751 13.2125 3.57725 13.6536 2.98649 14.3171C2.39573 14.9806 2.05011 15.8265 2.00722 16.7139C2.05189 17.5998 2.3983 18.4439 2.98891 19.1057C3.57952 19.7676 4.37879 20.2076 5.25396 20.3525V13.0673Z" fill="#2F2E41"/>
<path d="M19.0245 25.7107H15.7138C15.4487 25.7107 15.1944 25.6054 15.007 25.4179C14.8195 25.2305 14.7142 24.9762 14.7142 24.7111C14.7142 24.446 14.8195 24.1917 15.007 24.0043C15.1944 23.8168 15.4487 23.7115 15.7138 23.7115H19.0245C19.542 23.7115 20.0383 23.5059 20.4042 23.14C20.7702 22.7741 20.9757 22.2777 20.9757 21.7602V21.3204C20.9757 21.0553 21.0811 20.801 21.2685 20.6136C21.456 20.4261 21.7102 20.3208 21.9754 20.3208C22.2405 20.3208 22.4947 20.4261 22.6822 20.6136C22.8696 20.801 22.975 21.0553 22.975 21.3204V21.7602C22.975 22.808 22.5588 23.8128 21.8179 24.5536C21.077 25.2945 20.0722 25.7107 19.0245 25.7107Z" fill="#2F2E41"/>
<path d="M14.0027 27.5899H12.0274C11.3021 27.5899 10.6064 27.3018 10.0935 26.7889C9.58062 26.276 9.29248 25.5804 9.29248 24.855V24.7431C9.2946 24.0191 9.58368 23.3255 10.0963 22.8143C10.609 22.3032 11.3035 22.0161 12.0274 22.0161H14.0027C14.7259 22.0161 15.4195 22.3034 15.9309 22.8148C16.4423 23.3262 16.7296 24.0198 16.7296 24.7431V24.855C16.7296 25.579 16.4426 26.2734 15.9314 26.7861C15.4202 27.2988 14.7266 27.5878 14.0027 27.5899ZM12.0434 24.0153C11.8497 24.0153 11.6637 24.0917 11.526 24.228C11.3882 24.3642 11.3098 24.5493 11.3077 24.7431V24.855C11.3077 25.0501 11.3852 25.2373 11.5232 25.3752C11.6612 25.5132 11.8483 25.5907 12.0434 25.5907H14.0027C14.1964 25.5886 14.3815 25.5102 14.5177 25.3724C14.654 25.2347 14.7304 25.0488 14.7304 24.855V24.7431C14.7304 24.5501 14.6537 24.365 14.5172 24.2285C14.3808 24.092 14.1957 24.0153 14.0027 24.0153H12.0434Z" fill="#2F2E41"/>
</svg>
