<svg width="29" height="28" viewBox="0 0 29 28" fill="none" xmlns="http://www.w3.org/2000/svg">
<path d="M21.1923 0H7.80769C3.50231 0 0 3.38154 0 7.53846V20.4615C0 24.6185 3.50231 28 7.80769 28H21.1923C25.4977 28 29 24.6185 29 20.4615V7.53846C29 3.38154 25.4977 0 21.1923 0ZM26.7692 20.4615C26.7692 23.4306 24.2674 25.8462 21.1923 25.8462H7.80769C4.73258 25.8462 2.23077 23.4306 2.23077 20.4615V7.53846C2.23077 4.56939 4.73258 2.15385 7.80769 2.15385H21.1923C24.2674 2.15385 26.7692 4.56939 26.7692 7.53846V20.4615ZM14.5 7.53846C10.8092 7.53846 7.80769 10.4365 7.80769 14C7.80769 17.5635 10.8092 20.4615 14.5 20.4615C18.1908 20.4615 21.1923 17.5635 21.1923 14C21.1923 10.4365 18.1908 7.53846 14.5 7.53846ZM14.5 18.3077C12.0395 18.3077 10.0385 16.3757 10.0385 14C10.0385 11.6243 12.0395 9.69231 14.5 9.69231C16.9605 9.69231 18.9615 11.6243 18.9615 14C18.9615 16.3757 16.9605 18.3077 14.5 18.3077ZM23.4231 7C23.4231 7.89169 22.6735 8.61539 21.75 8.61539C20.8265 8.61539 20.0769 7.89169 20.0769 7C20.0769 6.10831 20.8265 5.38462 21.75 5.38462C22.6735 5.38462 23.4231 6.10831 23.4231 7Z" fill="#2F2E41"/>
</svg>
