<svg width="25" height="25" viewBox="0 0 25 25" fill="none" xmlns="http://www.w3.org/2000/svg">
<path d="M20.3555 25H3.98048C3.57423 25 3.24611 24.6719 3.24611 24.2656C3.24611 23.8594 3.57423 23.5312 3.98048 23.5312C5.3633 23.5312 6.4922 22.4062 6.4922 21.0195V0.734375C6.4883 0.328125 6.82033 0 7.22658 0H23.7266C24.1328 0 24.461 0.328125 24.461 0.734375V20.8984C24.461 23.1602 22.6211 25 20.3555 25ZM7.06642 23.5312H20.3555C21.8086 23.5312 22.9883 22.3516 22.9883 20.8984V1.46875H7.96095V21.0156C7.96095 21.9688 7.62502 22.8438 7.06642 23.5312Z" fill="white"/>
<path d="M3.98047 25C1.78516 25 0 23.2148 0 21.0195V12.5C0 12.0938 0.328125 11.7656 0.734375 11.7656H7.22266C7.62891 11.7656 7.95703 12.0938 7.95703 12.5V21.0195C7.96094 23.2148 6.17578 25 3.98047 25ZM1.47266 13.2344V21.0156C1.47266 22.3984 2.59766 23.5273 3.98047 23.5273C5.36328 23.5273 6.49219 22.4023 6.49219 21.0156V13.2344H1.47266ZM21.0781 8.15234H10.3047C9.89844 8.15234 9.57031 7.82422 9.57031 7.41797V4.10938C9.57031 3.70313 9.89844 3.375 10.3047 3.375H21.0781C21.4844 3.375 21.8125 3.70313 21.8125 4.10938V7.41797C21.8125 7.82422 21.4844 8.15234 21.0781 8.15234ZM14.7188 15.4414H10.3047C9.89844 15.4414 9.57031 15.1133 9.57031 14.707V10.293C9.57031 9.88672 9.89844 9.55859 10.3047 9.55859H14.7148C15.1211 9.55859 15.4492 9.88672 15.4492 10.293V14.7031C15.4531 15.1133 15.125 15.4414 14.7188 15.4414ZM21.0781 15.4414H17.4023C16.9961 15.4414 16.668 15.1133 16.668 14.707C16.668 14.3008 16.9961 13.9727 17.4023 13.9727H21.0781C21.4844 13.9727 21.8125 14.3008 21.8125 14.707C21.8125 15.1133 21.4844 15.4414 21.0781 15.4414ZM21.0781 19.1172H10.3047C9.89844 19.1172 9.57031 18.7891 9.57031 18.3828C9.57031 17.9766 9.89844 17.6484 10.3047 17.6484H21.0781C21.4844 17.6484 21.8125 17.9766 21.8125 18.3828C21.8125 18.7891 21.4844 19.1172 21.0781 19.1172Z" fill="white"/>
</svg>
