<svg width="27" height="25" viewBox="0 0 27 25" fill="none" xmlns="http://www.w3.org/2000/svg">
<path d="M8.37932 17.2241H7.44829C6.93409 17.2241 6.51725 17.641 6.51725 18.1552V23.7414C6.51725 24.2556 6.93409 24.6724 7.44829 24.6724H8.37932C8.89352 24.6724 9.31036 24.2556 9.31036 23.7414V18.1552C9.31036 17.641 8.89352 17.2241 8.37932 17.2241Z" fill="white"/>
<path d="M2.7931 20.0172H1.86206C1.34787 20.0172 0.93103 20.4341 0.93103 20.9482V23.7413C0.93103 24.2555 1.34787 24.6724 1.86206 24.6724H2.7931C3.3073 24.6724 3.72413 24.2555 3.72413 23.7413V20.9482C3.72413 20.4341 3.3073 20.0172 2.7931 20.0172Z" fill="white"/>
<path d="M13.9655 14.4309H13.0345C12.5203 14.4309 12.1034 14.8477 12.1034 15.3619V23.7413C12.1034 24.2554 12.5203 24.6723 13.0345 24.6723H13.9655C14.4797 24.6723 14.8965 24.2554 14.8965 23.7413V15.3619C14.8965 14.8477 14.4797 14.4309 13.9655 14.4309Z" fill="white"/>
<path d="M19.5517 11.6379H18.6207C18.1065 11.6379 17.6897 12.0548 17.6897 12.569V23.7414C17.6897 24.2556 18.1065 24.6724 18.6207 24.6724H19.5517C20.0659 24.6724 20.4828 24.2556 20.4828 23.7414V12.569C20.4828 12.0548 20.0659 11.6379 19.5517 11.6379Z" fill="white"/>
<path d="M25.1379 8.84485H24.2069C23.6927 8.84485 23.2758 9.26169 23.2758 9.77588V23.7414C23.2758 24.2556 23.6927 24.6724 24.2069 24.6724H25.1379C25.6521 24.6724 26.069 24.2556 26.069 23.7414V9.77588C26.069 9.26169 25.6521 8.84485 25.1379 8.84485Z" fill="white"/>
<path d="M26.8883 0.162931L26.8184 0.0977586C26.7461 0.0410798 26.6587 0.00706564 26.5671 0H24.6724C24.549 0 24.4305 0.0490455 24.3432 0.136347C24.2559 0.223648 24.2069 0.342054 24.2069 0.465517C24.2069 0.58898 24.2559 0.707386 24.3432 0.794687C24.4305 0.881989 24.549 0.931034 24.6724 0.931034H25.394L22.9314 3.35172C17.1864 8.99203 9.44747 12.1371 1.39655 12.1034H0.465517C0.342054 12.1034 0.223648 12.1525 0.136347 12.2398C0.0490454 12.3271 0 12.4455 0 12.569C0 12.6924 0.0490454 12.8108 0.136347 12.8981C0.223648 12.9854 0.342054 13.0345 0.465517 13.0345H1.92724C10.0397 12.9348 17.7993 9.70216 23.5831 4.01276L26.069 1.57345V2.32759C26.069 2.45105 26.118 2.56945 26.2053 2.65676C26.2926 2.74406 26.411 2.7931 26.5345 2.7931C26.6579 2.7931 26.7764 2.74406 26.8637 2.65676C26.951 2.56945 27 2.45105 27 2.32759V0.465517C27 0.354564 26.9604 0.247256 26.8883 0.162931Z" fill="white"/>
</svg>
