<svg width="28" height="28" viewBox="0 0 28 28" fill="none" xmlns="http://www.w3.org/2000/svg">
<path d="M27.9425 5.93816C27.8769 5.7403 27.7563 5.5645 27.5944 5.43069C27.4325 5.29689 27.2357 5.21044 27.0264 5.18115L22.6268 4.5466L20.6702 0.627991C20.5776 0.439774 20.433 0.28104 20.253 0.169974C20.0729 0.0589074 19.8648 0 19.6523 0C19.4398 0 19.2317 0.0589074 19.0516 0.169974C18.8716 0.28104 18.727 0.439774 18.6344 0.627991L16.6778 4.5466L12.2782 5.18115C12.0702 5.21091 11.8747 5.29717 11.7136 5.43025C11.5526 5.56333 11.4325 5.73795 11.3667 5.93452C11.3009 6.13108 11.2921 6.34181 11.3412 6.54303C11.3904 6.74425 11.4955 6.92801 11.6449 7.07366L14.8343 10.1351L14.0765 14.4433C14.0361 14.652 14.0573 14.8678 14.1374 15.065C14.2176 15.2623 14.3534 15.4328 14.5289 15.5566C14.6989 15.6787 14.9 15.7517 15.1098 15.7674C15.3196 15.7832 15.5297 15.741 15.7165 15.6456L19.6523 13.575L23.5881 15.6122C23.7478 15.697 23.9271 15.7392 24.1084 15.7347C24.2735 15.7368 24.437 15.7033 24.5875 15.6366C24.738 15.5698 24.8718 15.4715 24.9796 15.3484C25.0874 15.2254 25.1665 15.0806 25.2114 14.9242C25.2563 14.7678 25.2658 14.6037 25.2394 14.4433L24.4816 10.1351L27.671 7.07366C27.8185 6.92763 27.922 6.74417 27.9699 6.54371C28.0179 6.34324 28.0083 6.13362 27.9425 5.93816ZM22.4685 8.94391C22.3358 9.07019 22.2366 9.2265 22.1794 9.3992C22.1223 9.5719 22.1089 9.75574 22.1405 9.9347L22.6042 12.5953L20.1839 11.3374C20.0202 11.2516 19.8377 11.2068 19.6523 11.2068C19.4669 11.2068 19.2844 11.2516 19.1207 11.3374L16.7004 12.5953L17.1641 9.9347C17.1957 9.75574 17.1823 9.5719 17.1252 9.3992C17.068 9.2265 16.9688 9.07019 16.8361 8.94391L14.8682 7.06253L17.5826 6.6729C17.7658 6.64781 17.94 6.57887 18.0898 6.47213C18.2397 6.36538 18.3607 6.22408 18.4421 6.06061L19.6523 3.63374L20.8625 6.06061C20.9439 6.22408 21.0649 6.36538 21.2148 6.47213C21.3646 6.57887 21.5388 6.64781 21.722 6.6729L24.4364 7.06253L22.4685 8.94391ZM15.7165 17.4268L11.3169 16.7923L9.36029 12.8737C9.26768 12.6854 9.12308 12.5267 8.94306 12.4156C8.76303 12.3046 8.55487 12.2457 8.3424 12.2457C8.12994 12.2457 7.92177 12.3046 7.74175 12.4156C7.56172 12.5267 7.41712 12.6854 7.32451 12.8737L5.3679 16.7923L0.968349 17.4268C0.760279 17.4566 0.564757 17.5428 0.403735 17.6759C0.242712 17.809 0.122565 17.9836 0.0567816 18.1802C-0.00900149 18.3767 -0.0178156 18.5875 0.0313289 18.7887C0.0804734 18.9899 0.185631 19.1737 0.334994 19.3193L3.52439 22.3807L2.76662 26.689C2.72625 26.8977 2.74739 27.1134 2.82755 27.3107C2.90771 27.5079 3.04355 27.6785 3.21902 27.8022C3.38286 27.9138 3.57374 27.9808 3.77235 27.9965C3.97095 28.0121 4.17023 27.9758 4.35001 27.8913L8.3424 25.8207L12.2782 27.8579C12.4379 27.9426 12.6172 27.9849 12.7985 27.9803C12.9636 27.9824 13.1271 27.9489 13.2776 27.8822C13.4281 27.8155 13.5619 27.7171 13.6697 27.5941C13.7775 27.471 13.8566 27.3262 13.9015 27.1699C13.9464 27.0135 13.9559 26.8494 13.9295 26.689L13.1717 22.3807L16.3611 19.3193C16.5105 19.1737 16.6156 18.9899 16.6648 18.7887C16.7139 18.5875 16.7051 18.3767 16.6393 18.1802C16.5736 17.9836 16.4534 17.809 16.2924 17.6759C16.1314 17.5428 15.9358 17.4566 15.7278 17.4268H15.7165ZM11.1925 21.1896C11.0599 21.3158 10.9606 21.4722 10.9035 21.6449C10.8463 21.8176 10.8329 22.0014 10.8645 22.1804L11.3282 24.841L8.9079 23.583C8.74426 23.4973 8.56172 23.4524 8.37633 23.4524C8.19095 23.4524 8.0084 23.4973 7.84477 23.583L5.39052 24.841L5.85423 22.1804C5.88582 22.0014 5.87245 21.8176 5.81528 21.6449C5.75811 21.4722 5.65888 21.3158 5.52624 21.1896L3.55832 19.3082L6.27269 18.9186C6.45591 18.8935 6.63008 18.8245 6.77994 18.7178C6.9298 18.611 7.05077 18.4697 7.13224 18.3063L8.3424 15.8794L9.55256 18.3063C9.63404 18.4697 9.75501 18.611 9.90487 18.7178C10.0547 18.8245 10.2289 18.8935 10.4121 18.9186L13.1265 19.3082L11.1925 21.1896Z" fill="#2F2E41"/>
</svg>
