<svg width="24" height="25" viewBox="0 0 24 25" fill="none" xmlns="http://www.w3.org/2000/svg">
<path d="M21.5883 5.55585H21.069C21.2286 5.11134 21.3141 4.64166 21.322 4.1671C21.2941 3.03747 20.8386 1.96526 20.0551 1.18465C19.2717 0.404038 18.2238 -0.0215479 17.1404 0.000840646C16.0758 0.024818 15.0369 0.346854 14.1325 0.933228C13.2282 1.5196 12.4916 2.34875 12 3.33384C11.5084 2.34875 10.7718 1.5196 9.86749 0.933228C8.96314 0.346854 7.92424 0.024818 6.85959 0.000840646C5.77621 -0.0215479 4.72835 0.404038 3.94486 1.18465C3.16138 1.96526 2.70594 3.03747 2.678 4.1671C2.68587 4.64166 2.77145 5.11134 2.93103 5.55585H2.41166C2.06123 5.59055 1.72087 5.69734 1.41026 5.87006C1.09965 6.04277 0.824953 6.27799 0.602049 6.56209C0.379144 6.8462 0.212455 7.17357 0.111619 7.52527C0.0107826 7.87697 -0.0222004 8.24603 0.0145765 8.6111V13.6106C-0.0476352 14.2831 0.118158 14.957 0.48312 15.5152C0.848083 16.0735 1.38912 16.4806 2.01215 16.6659V22.7347C2.05326 23.3646 2.32782 23.9531 2.77772 24.3756C3.22761 24.7981 3.81752 25.0215 4.42255 24.9984H19.5775C20.1912 25.021 20.7887 24.79 21.2401 24.3558C21.6914 23.9215 21.9602 23.3189 21.9879 22.6792V16.6659C22.6109 16.4806 23.1519 16.0735 23.5169 15.5152C23.8818 14.957 24.0476 14.2831 23.9854 13.6106V8.6111C24.0222 8.24603 23.9892 7.87697 23.8884 7.52527C23.7875 7.17357 23.6209 6.8462 23.398 6.56209C23.1751 6.27799 22.9004 6.04277 22.5897 5.87006C22.2791 5.69734 21.9388 5.59055 21.5883 5.55585ZM21.322 8.6111V13.6106C21.338 13.7024 21.338 13.7965 21.322 13.8884H13.3317V8.33335H21.322C21.338 8.42518 21.338 8.51927 21.322 8.6111ZM17.1404 2.77834C17.5177 2.75542 17.8884 2.88825 18.1725 3.14813C18.4566 3.408 18.6312 3.77404 18.6586 4.1671C18.6312 4.56015 18.4566 4.92619 18.1725 5.18606C17.8884 5.44594 17.5177 5.57877 17.1404 5.55585H13.8644C14.0974 4.81394 14.5302 4.15759 15.111 3.66511C15.6919 3.17262 16.3964 2.86479 17.1404 2.77834ZM5.34143 4.1671C5.36878 3.77404 5.54338 3.408 5.82747 3.14813C6.11157 2.88825 6.48232 2.75542 6.85959 2.77834C7.60123 2.86731 8.30284 3.17628 8.88116 3.6686C9.45947 4.16091 9.89022 4.8159 10.1223 5.55585H6.85959C6.48232 5.57877 6.11157 5.44594 5.82747 5.18606C5.54338 4.92619 5.36878 4.56015 5.34143 4.1671ZM2.678 8.6111C2.66202 8.51927 2.66202 8.42518 2.678 8.33335H10.6683V13.8884H2.678C2.66202 13.7965 2.66202 13.7024 2.678 13.6106V8.6111ZM4.67557 16.6659H10.6683V22.2209H4.67557V16.6659ZM13.3317 22.2209V16.6659H19.3244V22.2209H13.3317Z" fill="#2F2E41"/>
</svg>
